<mxfile host="app.diagrams.net" modified="2025-09-19T19:43:13.000Z" agent="BMC Professional Generator" version="22.1.11" etag="professional-v2.0">
  <diagram name="BMC_Input - Professional Architecture" id="professional_arch">
    <mxGraphModel dx="2200" dy="1400" grid="1" gridSize="10" guides="1" tooltips="1" connect="1" arrows="1" fold="1" page="1" pageScale="1" pageWidth="2000" pageHeight="1400" background="#FFFFFF">
      <root>
        <mxCell id="0"/>
        <mxCell id="1" parent="0"/>
        
        
        <!-- Professional Header -->
        <mxCell id="main_header" value="BMC_Input" style="rounded=0;whiteSpace=wrap;html=1;fillColor=#232F3E;strokeColor=none;fontColor=#FFFFFF;fontSize=24;fontStyle=1;align=center;shadow=1;" vertex="1" parent="1">
          <mxGeometry x="50" y="20" width="1900" height="70" as="geometry"/>
        </mxCell>
        
        <mxCell id="sub_header" value="Sistema Regulatorio - Procesamiento de facturas y cálculo de comisiones | Version 2.0.0" style="rounded=0;whiteSpace=wrap;html=1;fillColor=#FF9900;strokeColor=none;fontColor=#FFFFFF;fontSize=14;fontStyle=0;align=center;" vertex="1" parent="1">
          <mxGeometry x="50" y="90" width="1900" height="30" as="geometry"/>
        </mxCell>
        
        <!-- Legend -->
        <mxCell id="legend" value="🏛️ Regulatorio | 🔒 Seguridad | ⚡ Performance | 📊 Analytics" style="rounded=1;whiteSpace=wrap;html=1;fillColor=#E8F5E8;strokeColor=#4CAF50;fontSize=12;align=center;" vertex="1" parent="1">
          <mxGeometry x="50" y="130" width="600" height="30" as="geometry"/>
        </mxCell>
        
        <!-- On-Premise Professional -->
        <mxCell id="onprem_container" value="On-Premise &amp; External Systems" style="rounded=1;whiteSpace=wrap;html=1;fillColor=#FFEBEE;strokeColor=#D32F2F;strokeWidth=3;fontSize=16;fontStyle=1;verticalAlign=top;spacingTop=20;shadow=1;glass=1;" vertex="1" parent="1">
          <mxGeometry x="50" y="180" width="400" height="300" as="geometry"/>
        </mxCell>
        
        <!-- Professional Users -->
        <mxCell id="bmc_users" value="BMC Users&lt;br&gt;&lt;b&gt;Reguladores&lt;/b&gt;&lt;br&gt;10K concurrent&lt;br&gt;Multi-device" style="sketch=0;outlineConnect=0;fontColor=#232F3E;gradientColor=#4AB29A;gradientDirection=north;fillColor=#116D5B;strokeColor=#ffffff;dashed=0;verticalLabelPosition=bottom;verticalAlign=top;align=center;html=1;fontSize=11;fontStyle=0;aspect=fixed;shape=mxgraph.aws4.users;shadow=1;" vertex="1" parent="1">
          <mxGeometry x="100" y="230" width="60" height="60" as="geometry"/>
        </mxCell>
        
        <!-- DIAN API Professional -->
        <mxCell id="dian_api" value="DIAN API&lt;br&gt;&lt;b&gt;Tax Authority&lt;/b&gt;&lt;br&gt;Clasificaciones&lt;br&gt;1K req/hour" style="sketch=0;outlineConnect=0;fontColor=#232F3E;gradientColor=#FF4F8B;gradientDirection=north;fillColor=#BC1356;strokeColor=#ffffff;dashed=0;verticalLabelPosition=bottom;verticalAlign=top;align=center;html=1;fontSize=11;fontStyle=0;aspect=fixed;shape=mxgraph.aws4.internet_gateway;shadow=1;" vertex="1" parent="1">
          <mxGeometry x="300" y="230" width="60" height="60" as="geometry"/>
        </mxCell>
        
        <!-- SFTP Professional -->
        <mxCell id="sftp_systems" value="SFTP Systems&lt;br&gt;&lt;b&gt;Regulatory&lt;/b&gt;&lt;br&gt;Batch Transfer&lt;br&gt;Nightly Sync" style="sketch=0;outlineConnect=0;fontColor=#232F3E;gradientColor=#60A337;gradientDirection=north;fillColor=#277116;strokeColor=#ffffff;dashed=0;verticalLabelPosition=bottom;verticalAlign=top;align=center;html=1;fontSize=11;fontStyle=0;aspect=fixed;shape=mxgraph.aws4.storage_gateway;shadow=1;" vertex="1" parent="1">
          <mxGeometry x="200" y="350" width="60" height="60" as="geometry"/>
        </mxCell>
        
        <!-- AWS Cloud Professional Container -->
        <mxCell id="aws_cloud" value="AWS Cloud - us-east-1 (Multi-AZ Production)" style="rounded=1;whiteSpace=wrap;html=1;fillColor=#E3F2FD;strokeColor=#1976D2;strokeWidth=4;fontSize=18;fontStyle=1;verticalAlign=top;spacingTop=25;shadow=1;glass=1;" vertex="1" parent="1">
          <mxGeometry x="500" y="180" width="1450" height="1100" as="geometry"/>
        </mxCell>
        
        <!-- AWS Logo -->
        <mxCell id="aws_logo" value="AWS" style="rounded=1;whiteSpace=wrap;html=1;fillColor=#FF9900;strokeColor=none;fontColor=#FFFFFF;fontSize=20;fontStyle=1;align=center;" vertex="1" parent="1">
          <mxGeometry x="1800" y="200" width="80" height="40" as="geometry"/>
        </mxCell>
        
        <!-- Edge Security Professional Layer -->
        <mxCell id="edge_security" value="Edge Security &amp; CDN Layer - Global Protection" style="rounded=1;whiteSpace=wrap;html=1;fillColor=#FFF3E0;strokeColor=#FF9800;strokeWidth=3;fontSize=14;fontStyle=1;verticalAlign=top;spacingTop=20;shadow=1;" vertex="1" parent="1">
          <mxGeometry x="550" y="250" width="800" height="150" as="geometry"/>
        </mxCell>
        
        <!-- CloudFront Professional -->
        <mxCell id="cloudfront_pro" value="CloudFront&lt;br&gt;&lt;b&gt;Global CDN&lt;/b&gt;&lt;br&gt;SSL/TLS&lt;br&gt;Edge Locations&lt;br&gt;Cache Rules" style="sketch=0;outlineConnect=0;fontColor=#232F3E;gradientColor=#F78E04;gradientDirection=north;fillColor=#D05C17;strokeColor=#ffffff;dashed=0;verticalLabelPosition=bottom;verticalAlign=top;align=center;html=1;fontSize=10;fontStyle=0;aspect=fixed;shape=mxgraph.aws4.cloudfront;shadow=1;" vertex="1" parent="1">
          <mxGeometry x="600" y="300" width="60" height="60" as="geometry"/>
        </mxCell>
        
        <!-- WAF Professional -->
        <mxCell id="waf_pro" value="AWS WAF&lt;br&gt;&lt;b&gt;Web Firewall&lt;/b&gt;&lt;br&gt;DDoS Protection&lt;br&gt;Rate: 2K req/s&lt;br&gt;Geo Blocking" style="sketch=0;outlineConnect=0;fontColor=#232F3E;gradientColor=#F54749;gradientDirection=north;fillColor=#C7131F;strokeColor=#ffffff;dashed=0;verticalLabelPosition=bottom;verticalAlign=top;align=center;html=1;fontSize=10;fontStyle=0;aspect=fixed;shape=mxgraph.aws4.waf;shadow=1;" vertex="1" parent="1">
          <mxGeometry x="750" y="300" width="60" height="60" as="geometry"/>
        </mxCell>
        
        <!-- API Gateway Professional -->
        <mxCell id="api_gateway_pro" value="API Gateway&lt;br&gt;&lt;b&gt;REST + GraphQL&lt;/b&gt;&lt;br&gt;JWT Validation&lt;br&gt;1K req/s&lt;br&gt;Caching" style="sketch=0;outlineConnect=0;fontColor=#232F3E;gradientColor=#FF4F8B;gradientDirection=north;fillColor=#BC1356;strokeColor=#ffffff;dashed=0;verticalLabelPosition=bottom;verticalAlign=top;align=center;html=1;fontSize=10;fontStyle=0;aspect=fixed;shape=mxgraph.aws4.api_gateway;shadow=1;" vertex="1" parent="1">
          <mxGeometry x="900" y="300" width="60" height="60" as="geometry"/>
        </mxCell>
        
        <!-- Cognito Professional -->
        <mxCell id="cognito_pro" value="Cognito&lt;br&gt;&lt;b&gt;User Pool&lt;/b&gt;&lt;br&gt;MFA: TOTP+SMS&lt;br&gt;Regulatory Auth&lt;br&gt;Session Mgmt" style="sketch=0;outlineConnect=0;fontColor=#232F3E;gradientColor=#F54749;gradientDirection=north;fillColor=#C7131F;strokeColor=#ffffff;dashed=0;verticalLabelPosition=bottom;verticalAlign=top;align=center;html=1;fontSize=10;fontStyle=0;aspect=fixed;shape=mxgraph.aws4.cognito;shadow=1;" vertex="1" parent="1">
          <mxGeometry x="1050" y="300" width="60" height="60" as="geometry"/>
        </mxCell>
        
        <!-- Application Layer Professional -->
        <mxCell id="app_layer_pro" value="Application Layer - ECS Fargate Auto Scaling (Production Ready)" style="rounded=1;whiteSpace=wrap;html=1;fillColor=#E8F5E8;strokeColor=#4CAF50;strokeWidth=3;fontSize=14;fontStyle=1;verticalAlign=top;spacingTop=20;shadow=1;" vertex="1" parent="1">
          <mxGeometry x="550" y="430" width="1200" height="300" as="geometry"/>
        </mxCell>
        
        <!-- ALB Professional -->
        <mxCell id="alb_pro" value="Application LB&lt;br&gt;&lt;b&gt;Multi-AZ&lt;/b&gt;&lt;br&gt;Health Checks&lt;br&gt;Target Groups&lt;br&gt;SSL Termination" style="sketch=0;outlineConnect=0;fontColor=#232F3E;gradientColor=#8C4FFF;gradientDirection=north;fillColor=#5A30B5;strokeColor=#ffffff;dashed=0;verticalLabelPosition=bottom;verticalAlign=top;align=center;html=1;fontSize=10;fontStyle=0;aspect=fixed;shape=mxgraph.aws4.application_load_balancer;shadow=1;" vertex="1" parent="1">
          <mxGeometry x="800" y="480" width="60" height="60" as="geometry"/>
        </mxCell>
        <!-- Invoice_Service Professional -->
        <mxCell id="invoice_service_pro" value="Invoice_Service&lt;br&gt;&lt;b&gt;2vCPU/4GB&lt;/b&gt;&lt;br&gt;Scale: 2-10&lt;br&gt;Procesamiento de facturas&lt;br&gt;Health: /health" style="sketch=0;outlineConnect=0;fontColor=#232F3E;gradientColor=#F78E04;gradientDirection=north;fillColor=#D05C17;strokeColor=#ffffff;dashed=0;verticalLabelPosition=bottom;verticalAlign=top;align=center;html=1;fontSize=9;fontStyle=0;aspect=fixed;shape=mxgraph.aws4.fargate;shadow=1;" vertex="1" parent="1">
          <mxGeometry x="600" y="580" width="60" height="60" as="geometry"/>
        </mxCell>
        <!-- Product_Service Professional -->
        <mxCell id="product_service_pro" value="Product_Service&lt;br&gt;&lt;b&gt;4vCPU/8GB&lt;/b&gt;&lt;br&gt;Scale: 3-15&lt;br&gt;Gestión de 60M&lt;br&gt;Health: /health" style="sketch=0;outlineConnect=0;fontColor=#232F3E;gradientColor=#F78E04;gradientDirection=north;fillColor=#D05C17;strokeColor=#ffffff;dashed=0;verticalLabelPosition=bottom;verticalAlign=top;align=center;html=1;fontSize=9;fontStyle=0;aspect=fixed;shape=mxgraph.aws4.fargate;shadow=1;" vertex="1" parent="1">
          <mxGeometry x="750" y="580" width="60" height="60" as="geometry"/>
        </mxCell>
        <!-- Ocr_Service Professional -->
        <mxCell id="ocr_service_pro" value="Ocr_Service&lt;br&gt;&lt;b&gt;2vCPU/4GB&lt;/b&gt;&lt;br&gt;Scale: 2-10&lt;br&gt;Análisis de facturas&lt;br&gt;Health: /health" style="sketch=0;outlineConnect=0;fontColor=#232F3E;gradientColor=#F78E04;gradientDirection=north;fillColor=#01A88D;strokeColor=#ffffff;dashed=0;verticalLabelPosition=bottom;verticalAlign=top;align=center;html=1;fontSize=9;fontStyle=0;aspect=fixed;shape=mxgraph.aws4.fargate;shadow=1;" vertex="1" parent="1">
          <mxGeometry x="900" y="580" width="60" height="60" as="geometry"/>
        </mxCell>
        <!-- Commission_Service Professional -->
        <mxCell id="commission_service_pro" value="Commission_Service&lt;br&gt;&lt;b&gt;1vCPU/2GB&lt;/b&gt;&lt;br&gt;Scale: 2-10&lt;br&gt;Cálculos de comisión&lt;br&gt;Health: /health" style="sketch=0;outlineConnect=0;fontColor=#232F3E;gradientColor=#F78E04;gradientDirection=north;fillColor=#9D5AAE;strokeColor=#ffffff;dashed=0;verticalLabelPosition=bottom;verticalAlign=top;align=center;html=1;fontSize=9;fontStyle=0;aspect=fixed;shape=mxgraph.aws4.fargate;shadow=1;" vertex="1" parent="1">
          <mxGeometry x="1050" y="580" width="60" height="60" as="geometry"/>
        </mxCell>
        <!-- Certificate_Service Professional -->
        <mxCell id="certificate_service_pro" value="Certificate_Service&lt;br&gt;&lt;b&gt;1vCPU/2GB&lt;/b&gt;&lt;br&gt;Scale: 2-10&lt;br&gt;Generación de certificados&lt;br&gt;Health: /health" style="sketch=0;outlineConnect=0;fontColor=#232F3E;gradientColor=#F78E04;gradientDirection=north;fillColor=#D13212;strokeColor=#ffffff;dashed=0;verticalLabelPosition=bottom;verticalAlign=top;align=center;html=1;fontSize=9;fontStyle=0;aspect=fixed;shape=mxgraph.aws4.fargate;shadow=1;" vertex="1" parent="1">
          <mxGeometry x="1200" y="580" width="60" height="60" as="geometry"/>
        </mxCell>
        None
        
        <!-- Integration Layer Professional -->
        <mxCell id="integration_pro" value="Event-Driven Integration - 10K events/hour (Regulatory Compliant)" style="rounded=1;whiteSpace=wrap;html=1;fillColor=#FFF8E1;strokeColor=#FFC107;strokeWidth=3;fontSize=14;fontStyle=1;verticalAlign=top;spacingTop=20;shadow=1;" vertex="1" parent="1">
          <mxGeometry x="550" y="990" width="600" height="150" as="geometry"/>
        </mxCell>
        
        <!-- SQS Professional -->
        <mxCell id="sqs_pro" value="SQS FIFO&lt;br&gt;&lt;b&gt;Processing Queue&lt;/b&gt;&lt;br&gt;5min Visibility&lt;br&gt;DLQ Enabled&lt;br&gt;Batch Processing" style="sketch=0;outlineConnect=0;fontColor=#232F3E;gradientColor=#FF4F8B;gradientDirection=north;fillColor=#BC1356;strokeColor=#ffffff;dashed=0;verticalLabelPosition=bottom;verticalAlign=top;align=center;html=1;fontSize=9;fontStyle=0;aspect=fixed;shape=mxgraph.aws4.sqs;shadow=1;" vertex="1" parent="1">
          <mxGeometry x="600" y="1040" width="60" height="60" as="geometry"/>
        </mxCell>
        
        <!-- SNS Professional -->
        <mxCell id="sns_pro" value="SNS Topics&lt;br&gt;&lt;b&gt;Notifications&lt;/b&gt;&lt;br&gt;Multi-channel&lt;br&gt;Email/SMS&lt;br&gt;Webhooks" style="sketch=0;outlineConnect=0;fontColor=#232F3E;gradientColor=#FF4F8B;gradientDirection=north;fillColor=#BC1356;strokeColor=#ffffff;dashed=0;verticalLabelPosition=bottom;verticalAlign=top;align=center;html=1;fontSize=9;fontStyle=0;aspect=fixed;shape=mxgraph.aws4.sns;shadow=1;" vertex="1" parent="1">
          <mxGeometry x="750" y="1040" width="60" height="60" as="geometry"/>
        </mxCell>
        
        <!-- EventBridge Professional -->
        <mxCell id="eventbridge_pro" value="EventBridge&lt;br&gt;&lt;b&gt;Custom Bus&lt;/b&gt;&lt;br&gt;Event Rules&lt;br&gt;Regulatory Events&lt;br&gt;Schema Registry" style="sketch=0;outlineConnect=0;fontColor=#232F3E;gradientColor=#FF4F8B;gradientDirection=north;fillColor=#BC1356;strokeColor=#ffffff;dashed=0;verticalLabelPosition=bottom;verticalAlign=top;align=center;html=1;fontSize=9;fontStyle=0;aspect=fixed;shape=mxgraph.aws4.eventbridge;shadow=1;" vertex="1" parent="1">
          <mxGeometry x="900" y="1040" width="60" height="60" as="geometry"/>
        </mxCell>
        
        <!-- Monitoring Layer Professional -->
        <mxCell id="monitoring_pro" value="Monitoring &amp; Observability - 99.9% SLA (Regulatory Compliance)" style="rounded=1;whiteSpace=wrap;html=1;fillColor=#ECEFF1;strokeColor=#607D8B;strokeWidth=3;fontSize=14;fontStyle=1;verticalAlign=top;spacingTop=20;shadow=1;" vertex="1" parent="1">
          <mxGeometry x="1200" y="990" width="500" height="150" as="geometry"/>
        </mxCell>
        
        <!-- CloudWatch Professional -->
        <mxCell id="cloudwatch_pro" value="CloudWatch&lt;br&gt;&lt;b&gt;Metrics &amp; Logs&lt;/b&gt;&lt;br&gt;Custom Metrics&lt;br&gt;Regulatory Alarms&lt;br&gt;Dashboards" style="sketch=0;outlineConnect=0;fontColor=#232F3E;gradientColor=#F34482;gradientDirection=north;fillColor=#BC1356;strokeColor=#ffffff;dashed=0;verticalLabelPosition=bottom;verticalAlign=top;align=center;html=1;fontSize=9;fontStyle=0;aspect=fixed;shape=mxgraph.aws4.cloudwatch;shadow=1;" vertex="1" parent="1">
          <mxGeometry x="1250" y="1040" width="60" height="60" as="geometry"/>
        </mxCell>
        
        <!-- X-Ray Professional -->
        <mxCell id="xray_pro" value="X-Ray Tracing&lt;br&gt;&lt;b&gt;Distributed&lt;/b&gt;&lt;br&gt;Service Map&lt;br&gt;Performance&lt;br&gt;Error Analysis" style="sketch=0;outlineConnect=0;fontColor=#232F3E;gradientColor=#F34482;gradientDirection=north;fillColor=#BC1356;strokeColor=#ffffff;dashed=0;verticalLabelPosition=bottom;verticalAlign=top;align=center;html=1;fontSize=9;fontStyle=0;aspect=fixed;shape=mxgraph.aws4.x_ray;shadow=1;" vertex="1" parent="1">
          <mxGeometry x="1400" y="1040" width="60" height="60" as="geometry"/>
        </mxCell>
        
        <!-- Professional KPIs -->
        <mxCell id="kpis_pro" value="📊 Performance KPIs\n\n🏛️ REGULATORY:\n• Products: 60M\n• Categories: 16000\n• Processing: 10000/hour\n\n🎯 ACCURACY:\n• OCR: >95%\n• Matching: >99%\n• Compliance: >99.8%\n\n⚡ PERFORMANCE:\n• Product Lookup: 300ms\n• Invoice Process: 3000ms\n• Certificate Gen: 2000ms" style="rounded=1;whiteSpace=wrap;html=1;fillColor=#E1F5FE;strokeColor=#0277BD;strokeWidth=2;fontSize=10;align=left;verticalAlign=top;shadow=1;" vertex="1" parent="1">
          <mxGeometry x="1500" y="430" width="250" height="300" as="geometry"/>
        </mxCell>
        
        <!-- Cost Optimization -->
        <mxCell id="cost_opt" value="💰 COST OPTIMIZATION\n\n• Monthly: $8,650\n• Per Invoice: $0.0009\n• Reserved Instances: 40%\n• Spot Instances: 20%\n• Auto Scaling: Enabled\n• Cost Alerts: Active" style="rounded=1;whiteSpace=wrap;html=1;fillColor=#E8F5E8;strokeColor=#4CAF50;strokeWidth=2;fontSize=10;align=left;verticalAlign=top;shadow=1;" vertex="1" parent="1">
          <mxGeometry x="1500" y="760" width="250" height="150" as="geometry"/>
        </mxCell>
        
        <!-- Professional Connections with Labels -->
        
        <!-- Main User Flow -->
        <mxCell id="conn_user_cf" style="endArrow=classic;html=1;strokeColor=#1976D2;strokeWidth=4;fontSize=10;fontStyle=1;labelBackgroundColor=#FFFFFF;" edge="1" parent="1" source="bmc_users" target="cloudfront_pro">
          <mxGeometry width="50" height="50" relative="1" as="geometry">
            <mxPoint x="400" y="400" as="sourcePoint"/>
            <mxPoint x="450" y="350" as="targetPoint"/>
          </mxGeometry>
          <mxCell id="label_user_cf" value="HTTPS\n10K users" style="edgeLabel;html=1;align=center;verticalAlign=middle;resizable=0;points=[];fontSize=9;fontStyle=1;fillColor=#E3F2FD;strokeColor=#1976D2;" vertex="1" connectable="0" parent="conn_user_cf">
            <mxGeometry x="-0.1" y="-1" relative="1" as="geometry">
              <mxPoint as="offset"/>
            </mxGeometry>
          </mxCell>
        </mxCell>
        
        <!-- Security Chain -->
        <mxCell id="conn_cf_waf" style="endArrow=classic;html=1;strokeColor=#FF9800;strokeWidth=3;fontSize=10;" edge="1" parent="1" source="cloudfront_pro" target="waf_pro">
          <mxCell id="label_cf_waf" value="Filter\nDDoS" style="edgeLabel;html=1;align=center;verticalAlign=middle;resizable=0;points=[];fontSize=9;fillColor=#FFF3E0;strokeColor=#FF9800;" vertex="1" connectable="0" parent="conn_cf_waf">
            <mxGeometry x="-0.1" y="-1" relative="1" as="geometry">
              <mxPoint as="offset"/>
            </mxGeometry>
          </mxCell>
        </mxCell>
        
        <mxCell id="conn_waf_api" style="endArrow=classic;html=1;strokeColor=#FF9800;strokeWidth=3;" edge="1" parent="1" source="waf_pro" target="api_gateway_pro">
          <mxCell id="label_waf_api" value="Validate\nRate Limit" style="edgeLabel;html=1;align=center;verticalAlign=middle;resizable=0;points=[];fontSize=9;fillColor=#FFF3E0;strokeColor=#FF9800;" vertex="1" connectable="0" parent="conn_waf_api">
            <mxGeometry x="-0.1" y="-1" relative="1" as="geometry">
              <mxPoint as="offset"/>
            </mxGeometry>
          </mxCell>
        </mxCell>
        
        <mxCell id="conn_api_cognito" style="endArrow=classic;html=1;strokeColor=#D32F2F;strokeWidth=2;dashed=1;" edge="1" parent="1" source="api_gateway_pro" target="cognito_pro">
          <mxCell id="label_api_cognito" value="Auth\nMFA" style="edgeLabel;html=1;align=center;verticalAlign=middle;resizable=0;points=[];fontSize=9;fillColor=#FFEBEE;strokeColor=#D32F2F;" vertex="1" connectable="0" parent="conn_api_cognito">
            <mxGeometry x="-0.1" y="-1" relative="1" as="geometry">
              <mxPoint as="offset"/>
            </mxGeometry>
          </mxCell>
        </mxCell>
        
        <!-- Application Flow -->
        <mxCell id="conn_api_alb" style="endArrow=classic;html=1;strokeColor=#4CAF50;strokeWidth=4;" edge="1" parent="1" source="api_gateway_pro" target="alb_pro">
          <mxCell id="label_api_alb" value="Route\n1K req/s" style="edgeLabel;html=1;align=center;verticalAlign=middle;resizable=0;points=[];fontSize=9;fontStyle=1;fillColor=#E8F5E8;strokeColor=#4CAF50;" vertex="1" connectable="0" parent="conn_api_alb">
            <mxGeometry x="-0.1" y="-1" relative="1" as="geometry">
              <mxPoint as="offset"/>
            </mxGeometry>
          </mxCell>
        </mxCell>
        
        <!-- External Integrations -->
        <mxCell id="conn_dian_api" style="endArrow=classic;html=1;strokeColor=#607D8B;strokeWidth=2;dashed=1;" edge="1" parent="1" source="dian_api" target="api_gateway_pro">
          <mxCell id="label_dian_api" value="Tax\nValidation" style="edgeLabel;html=1;align=center;verticalAlign=middle;resizable=0;points=[];fontSize=9;fillColor=#ECEFF1;strokeColor=#607D8B;" vertex="1" connectable="0" parent="conn_dian_api">
            <mxGeometry x="-0.1" y="-1" relative="1" as="geometry">
              <mxPoint as="offset"/>
            </mxGeometry>
          </mxCell>
        </mxCell>
        
        <!-- Monitoring Connections -->
        <mxCell id="conn_monitor1" style="endArrow=classic;html=1;strokeColor=#795548;strokeWidth=1;dashed=1;" edge="1" parent="1" source="invoice_service_pro" target="cloudwatch_pro"/>
        <mxCell id="conn_monitor2" style="endArrow=classic;html=1;strokeColor=#795548;strokeWidth=1;dashed=1;" edge="1" parent="1" source="product_service_pro" target="cloudwatch_pro"/>
        <mxCell id="conn_monitor3" style="endArrow=classic;html=1;strokeColor=#795548;strokeWidth=1;dashed=1;" edge="1" parent="1" source="rds_primary_pro" target="cloudwatch_pro"/>
        
      </root>
    </mxGraphModel>
  </diagram>
</mxfile>